<svg width="16" height="12" viewBox="0 0 16 12" fill="none" xmlns="http://www.w3.org/2000/svg">
<path d="M8 0.416626C4.36364 0.416626 1.25818 2.67844 0 5.87117C1.25818 9.0639 4.36364 11.3257 8 11.3257C11.6364 11.3257 14.7418 9.0639 16 5.87117C14.7418 2.67844 11.6364 0.416626 8 0.416626ZM8 9.50753C5.99273 9.50753 4.36364 7.87844 4.36364 5.87117C4.36364 3.8639 5.99273 2.23481 8 2.23481C10.0073 2.23481 11.6364 3.8639 11.6364 5.87117C11.6364 7.87844 10.0073 9.50753 8 9.50753ZM8 3.68935C6.79273 3.68935 5.81818 4.6639 5.81818 5.87117C5.81818 7.07844 6.79273 8.05299 8 8.05299C9.20727 8.05299 10.1818 7.07844 10.1818 5.87117C10.1818 4.6639 9.20727 3.68935 8 3.68935Z" fill="#4D4D4D"/>
</svg>
